<?xml version="1.0" standalone="no"?>
<!DOCTYPE svg PUBLIC "-//W3C//DTD SVG 20010904//EN"
 "http://www.w3.org/TR/2001/REC-SVG-20010904/DTD/svg10.dtd">
<svg version="1.0" xmlns="http://www.w3.org/2000/svg"
 width="958.000000pt" height="959.000000pt" viewBox="0 0 958.000000 959.000000"
 preserveAspectRatio="xMidYMid meet">

<g transform="translate(0.000000,959.000000) scale(0.100000,-0.100000)"
fill="#000000" stroke="none">
<path d="M1838 9538 c-20 -29 -41 -70 -47 -90 -7 -20 -18 -42 -26 -48 -16 -13
-225 -402 -225 -419 0 -6 -15 -57 -34 -114 -19 -56 -43 -133 -54 -172 -11 -38
-29 -95 -41 -124 -11 -30 -20 -71 -20 -90 0 -20 -7 -76 -17 -126 -20 -108 -28
-210 -18 -233 4 -9 6 -32 5 -50 -2 -19 8 -50 23 -78 14 -26 26 -53 26 -61 0
-10 7 -14 20 -10 13 3 20 0 20 -9 0 -8 5 -14 10 -14 6 0 10 -9 10 -20 0 -10 6
-25 13 -32 9 -8 12 -28 9 -58 -4 -44 0 -74 33 -275 10 -63 14 -134 12 -192 -4
-86 -3 -93 19 -114 21 -20 23 -28 18 -83 -3 -34 -9 -88 -14 -121 -16 -105 -22
-201 -11 -186 5 8 12 51 16 95 5 55 15 97 32 130 27 54 120 176 134 176 23 0
30 -47 26 -171 -3 -72 -8 -133 -11 -136 -3 -4 -6 -1 -6 6 0 7 -5 9 -11 6 -6
-4 -21 3 -34 15 -16 15 -30 20 -45 15 -20 -6 -21 -11 -15 -68 4 -34 8 -84 9
-110 3 -32 11 -56 25 -71 11 -12 21 -28 21 -36 0 -19 31 -39 63 -40 19 0 27
-5 28 -17 0 -10 5 -4 10 12 5 17 7 46 4 65 -6 39 8 196 30 335 8 50 14 108 15
131 l0 41 43 -1 42 -1 7 -95 c22 -299 153 -549 371 -712 162 -120 306 -169
502 -170 139 -1 253 23 372 77 39 18 75 30 79 27 4 -4 5 -2 1 3 -3 6 9 21 26
35 62 46 173 166 215 230 23 36 55 95 70 132 28 71 42 85 42 43 0 -40 29 -43
61 -8 27 31 64 135 55 156 -3 9 -5 8 -5 0 -1 -7 -10 -13 -20 -13 -11 0 -23 -5
-26 -10 -12 -19 -26 0 -15 20 17 31 11 67 -14 97 -18 22 -25 45 -31 105 -7 69
-5 78 14 97 19 19 32 21 129 21 98 0 158 -13 124 -27 -6 -2 -9 -9 -6 -14 3 -6
2 -15 -3 -22 -5 -7 -10 -41 -11 -76 -1 -35 -6 -69 -12 -75 -5 -5 -10 -18 -10
-27 0 -14 -10 -19 -47 -21 -31 -2 -48 -8 -51 -18 -3 -8 -1 -12 3 -8 9 8 35
-16 35 -32 0 -6 -20 -45 -45 -86 -25 -40 -45 -77 -45 -81 0 -5 28 22 63 59 68
73 89 79 140 42 25 -18 32 -36 28 -76 -1 -9 5 -28 14 -41 11 -17 18 -60 22
-141 3 -64 9 -116 13 -116 13 0 21 -51 11 -64 -6 -7 -8 -22 -4 -35 4 -15 -1
-29 -16 -45 -12 -12 -18 -25 -15 -29 13 -13 -30 -123 -61 -157 -56 -60 -66
-100 -29 -114 16 -6 19 -52 3 -61 -5 -4 -19 1 -29 10 -10 9 -27 15 -37 13 -20
-4 -31 -47 -14 -58 21 -12 30 -65 15 -85 -8 -10 -14 -24 -14 -31 0 -14 52 -34
87 -34 15 0 23 -5 20 -12 -2 -7 -13 -13 -23 -12 -17 0 -19 -7 -17 -55 1 -31
-1 -48 -3 -38 -3 9 -10 17 -15 17 -5 0 -12 -8 -16 -17 -9 -26 -35 -48 -61 -51
-20 -3 -22 0 -16 22 5 20 2 26 -10 26 -9 0 -16 5 -16 10 0 19 -32 10 -37 -10
-3 -11 -9 -18 -13 -15 -4 3 -10 -2 -14 -10 -3 -8 -12 -12 -20 -9 -10 4 -16 -4
-21 -25 -7 -31 -28 -41 -39 -18 -5 10 -7 10 -12 0 -3 -7 -14 -13 -24 -13 -11
0 -23 -6 -27 -13 -9 -14 -70 -37 -101 -37 -27 0 -58 -40 -39 -52 9 -6 8 -8 -4
-8 -18 0 -59 -33 -59 -47 0 -6 -9 -21 -19 -35 -11 -13 -23 -36 -26 -51 -4 -14
-13 -31 -21 -38 -8 -6 -11 -16 -7 -22 3 -6 1 -7 -5 -3 -20 12 -81 -33 -82 -60
0 -16 70 -28 83 -15 6 6 20 11 31 11 17 0 18 -2 6 -10 -16 -10 -8 -13 28 -10
13 1 29 -3 36 -9 7 -6 23 -9 35 -6 14 2 31 -4 44 -15 24 -23 23 -23 -20 -11
-18 5 -45 6 -60 1 -16 -5 -20 -9 -10 -9 9 -1 17 -5 17 -10 0 -5 9 -12 19 -16
11 -3 23 -15 26 -26 5 -14 10 -17 19 -10 9 8 15 1 25 -24 8 -22 19 -35 29 -34
11 0 12 3 5 6 -7 2 -13 9 -13 14 0 4 7 6 15 3 8 -4 15 -14 15 -24 0 -10 -7
-25 -15 -34 -18 -18 -19 -26 -2 -26 7 0 18 9 25 20 19 31 31 24 25 -15 -3 -19
-2 -42 2 -52 6 -16 8 -16 26 6 26 32 32 23 20 -30 -16 -72 -14 -76 69 -165 11
-12 20 -26 20 -32 0 -5 23 -18 50 -28 31 -11 50 -24 50 -33 0 -19 24 -88 33
-97 4 -4 7 -29 7 -55 0 -48 -14 -65 -40 -49 -19 11 -31 3 -23 -16 4 -12 0 -14
-23 -9 -18 4 -24 3 -17 -2 17 -12 0 -74 -27 -98 -11 -10 -20 -24 -20 -30 0 -7
-7 -19 -16 -26 -15 -12 -14 -15 5 -30 13 -11 17 -20 11 -24 -5 -3 -10 -13 -10
-22 0 -11 6 -14 25 -9 19 5 23 3 19 -9 -5 -11 1 -15 21 -15 22 0 25 -3 20 -20
-5 -15 -2 -20 11 -20 13 0 14 -3 4 -15 -7 -8 -19 -15 -26 -15 -8 0 -14 -8 -14
-18 0 -10 -6 -24 -12 -30 -9 -9 -10 -15 -2 -20 6 -4 14 -24 18 -44 4 -20 12
-39 19 -42 7 -2 2 -4 -11 -2 -12 1 -28 8 -34 14 -17 17 -58 15 -58 -2 0 -9 -7
-12 -20 -9 -11 3 -28 2 -37 -2 -17 -6 -17 -7 1 -21 19 -14 19 -14 -1 -14 -12
0 -25 -5 -28 -10 -3 -5 -14 -10 -24 -10 -10 0 -23 -12 -30 -27 -10 -21 -14
-24 -21 -13 -7 12 -10 12 -15 -2 -5 -12 2 -25 21 -42 27 -22 28 -26 13 -43
-21 -24 -13 -56 12 -50 14 4 19 1 17 -11 -2 -12 5 -17 22 -19 14 0 29 -1 34
-2 5 -1 3 -8 -4 -16 -7 -8 -10 -22 -6 -30 3 -8 1 -15 -5 -15 -5 0 -7 -10 -4
-23 3 -12 -1 -40 -10 -62 -16 -37 -16 -40 1 -52 14 -10 15 -17 6 -35 -29 -56
-44 -73 -97 -111 -21 -15 -24 -22 -15 -33 7 -7 10 -19 7 -26 -4 -8 -6 -7 -6 5
-1 17 -21 25 -21 9 0 -5 -17 -17 -37 -28 -21 -10 -40 -21 -43 -24 -19 -19 -46
-26 -63 -16 -12 7 -20 8 -25 1 -6 -9 -108 -13 -122 -6 -3 2 -20 4 -38 6 -18 1
-39 10 -46 20 -7 9 -26 18 -44 19 -17 1 -37 7 -44 14 -6 6 -17 12 -24 12 -7 0
-37 13 -69 30 -31 16 -59 29 -63 27 -4 -1 -33 23 -66 53 -32 30 -62 54 -67 53
-4 -2 -11 6 -14 17 -4 11 -11 20 -16 20 -5 0 -14 12 -19 26 -6 14 -23 44 -39
68 -16 23 -41 82 -55 131 -15 50 -33 114 -42 143 -9 30 -22 140 -29 245 -12
167 -25 273 -51 419 -5 31 -11 38 -30 38 -13 0 -24 -3 -24 -8 0 -4 -14 -13
-30 -21 -37 -16 -189 -107 -272 -162 -33 -21 -62 -39 -65 -39 -9 0 -177 -123
-181 -132 -2 -4 -8 -8 -14 -8 -10 0 -87 -65 -193 -165 -27 -25 -63 -53 -79
-62 -22 -12 -26 -17 -15 -24 10 -6 6 -9 -14 -9 -15 0 -35 -6 -43 -12 -9 -7
-23 -20 -33 -28 -10 -8 -24 -16 -32 -18 -19 -4 -119 -73 -127 -88 -4 -6 -22
-19 -39 -28 -18 -9 -33 -21 -33 -26 0 -5 -9 -11 -19 -15 -10 -3 -35 -20 -54
-38 -70 -64 -113 -99 -139 -115 -16 -9 -28 -20 -28 -24 0 -12 -38 -48 -50 -48
-6 0 -13 -7 -16 -15 -4 -8 -10 -15 -15 -15 -5 0 -38 -29 -73 -65 -35 -36 -68
-65 -73 -65 -5 0 -33 -22 -62 -50 -29 -27 -57 -50 -62 -50 -4 0 -13 -9 -19
-20 -6 -11 -18 -20 -26 -20 -10 0 -14 -6 -10 -15 3 -10 -1 -15 -13 -15 -19 0
-36 -25 -32 -47 1 -7 -4 -13 -12 -13 -17 0 -67 -45 -67 -60 0 -5 -9 -10 -20
-10 -11 0 -27 -12 -37 -28 -19 -30 -82 -92 -95 -92 -13 0 -9 -28 5 -34 7 -3 7
-5 -3 -3 -25 3 -112 -53 -163 -105 -44 -45 -48 -55 -59 -122 -8 -52 -8 -85 -1
-115 8 -28 8 -43 1 -47 -13 -8 -3 -101 12 -119 7 -9 6 -16 -5 -25 -20 -16 -21
-74 -1 -67 15 6 13 -36 -4 -102 -6 -22 -6 -39 1 -47 22 -27 29 -76 14 -104
-13 -25 -13 -32 0 -57 19 -37 19 -52 -2 -76 -16 -17 -16 -20 -3 -30 19 -14 19
-52 1 -95 -14 -34 -7 -57 9 -32 7 10 8 -1 4 -31 -5 -40 -3 -49 17 -68 l24 -22
-23 -42 c-23 -45 -28 -62 -13 -53 10 7 51 82 47 88 -2 1 -6 17 -10 33 l-6 30
19 -34 18 -34 -55 -109 c-31 -59 -53 -110 -50 -113 2 -3 15 16 28 43 13 26 39
72 58 102 19 30 41 66 49 78 8 13 17 21 20 18 3 -2 -4 -17 -15 -33 -34 -49
-143 -266 -140 -280 2 -7 19 17 38 54 37 74 176 293 185 293 8 0 -22 -57 -56
-106 -70 -103 -172 -306 -166 -332 3 -15 5 -15 12 3 5 11 31 60 59 108 28 48
57 98 63 111 7 13 21 30 30 37 16 13 16 12 0 -14 -66 -103 -168 -300 -165
-319 2 -17 13 -3 43 57 22 44 42 82 45 85 8 7 90 140 90 146 0 2 16 27 35 54
19 27 35 52 35 54 0 2 22 43 50 91 27 48 50 88 50 91 0 2 18 33 40 69 22 36
40 70 40 75 0 6 4 10 10 10 12 0 2 -26 -27 -70 -13 -19 -23 -38 -23 -41 0 -4
-25 -49 -56 -100 -31 -52 -65 -107 -74 -124 -9 -16 -52 -88 -94 -159 -83 -137
-129 -225 -141 -266 -11 -39 8 -14 50 65 21 39 84 147 140 240 91 153 171 297
236 425 44 89 91 160 104 160 8 0 19 15 26 34 11 31 14 33 25 19 10 -15 12
-13 19 15 8 37 20 48 29 27 3 -9 -1 -18 -9 -21 -8 -4 -15 -17 -15 -31 0 -13
-4 -22 -8 -19 -10 6 1 -81 11 -91 4 -3 7 10 7 30 0 43 9 69 21 61 13 -8 11
-38 -6 -70 -18 -36 -18 -52 0 -84 14 -24 14 -23 15 30 l0 55 15 -29 c11 -20
13 -43 9 -77 -6 -45 -5 -49 17 -57 18 -7 27 -5 36 7 16 21 17 7 1 -19 -16 -25
-3 -38 22 -22 17 10 20 10 20 -5 1 -25 30 -59 57 -68 17 -5 23 -2 23 9 0 24
38 19 65 -9 40 -39 31 -63 -10 -25 -13 12 -25 16 -34 11 -11 -7 1 -28 53 -92
36 -46 66 -88 66 -94 0 -6 13 -18 29 -28 30 -18 91 -88 91 -104 0 -6 7 -24 16
-42 16 -31 45 -123 46 -148 1 -7 6 -11 11 -10 6 1 15 -15 21 -35 6 -20 14 -40
19 -44 4 -4 7 -22 7 -40 0 -18 5 -36 10 -39 6 -3 10 -17 10 -30 0 -13 5 -27
10 -30 10 -6 62 -112 74 -150 3 -11 2 -35 -3 -53 -5 -17 -6 -32 -1 -32 5 0 10
12 12 27 3 25 5 22 32 -28 51 -97 78 -144 85 -149 4 -3 10 -13 14 -23 5 -14 3
-16 -11 -8 -24 14 -52 49 -52 66 0 19 -29 65 -41 65 -14 0 -11 -20 6 -36 19
-19 9 -50 -11 -33 -23 19 -26 4 -4 -24 11 -14 20 -29 20 -34 0 -4 7 -17 16
-28 13 -18 14 -17 7 15 -6 32 -5 34 11 21 9 -8 23 -28 30 -45 8 -17 30 -49 50
-71 20 -22 36 -48 36 -57 0 -9 4 -19 9 -23 11 -6 9 -40 -4 -68 -4 -11 -3 -29
4 -43 18 -40 29 -68 36 -93 10 -34 45 -91 57 -91 6 0 3 11 -6 25 -29 44 -57
153 -36 140 4 -2 12 -23 19 -47 7 -24 20 -60 29 -80 l15 -38 254 0 c204 0 253
3 253 13 0 8 -3 17 -7 21 -4 4 -8 13 -9 19 0 7 -2 21 -3 32 -1 15 -3 17 -10 7
-6 -10 -10 -4 -14 18 -4 17 -11 29 -17 25 -20 -12 -9 8 17 32 21 20 23 27 12
34 -8 5 -18 9 -23 9 -4 0 -6 6 -3 14 3 8 -1 17 -9 20 -23 9 -7 25 21 21 16 -1
25 3 25 11 0 8 -6 11 -15 8 -9 -4 -15 0 -15 10 0 9 7 16 15 16 8 0 15 5 15 11
0 5 -5 7 -10 4 -26 -16 -40 17 -38 89 1 40 -2 77 -5 83 -4 6 -2 24 4 39 8 23
7 31 -4 39 -11 8 -14 23 -10 58 4 31 2 47 -6 47 -6 0 -11 -5 -11 -11 0 -5 -4
-7 -10 -4 -5 3 -10 17 -10 31 0 28 -3 29 -35 8 -20 -13 -25 -14 -25 -3 0 8 -3
25 -5 39 -5 22 -4 22 4 5 8 -17 10 -16 10 13 1 25 5 32 22 32 28 0 22 42 -9
55 -12 5 -20 16 -17 23 3 7 0 10 -5 7 -6 -4 -11 11 -11 37 -2 30 -3 35 -6 15
-2 -15 -9 -25 -14 -22 -5 4 -9 -26 -9 -71 0 -114 -8 -86 -13 46 -3 63 -3 105
0 93 8 -42 18 -23 19 37 1 44 -2 60 -12 60 -8 0 -14 6 -14 13 0 8 10 13 23 13
18 -1 22 5 25 36 3 33 1 37 -20 35 -13 0 -26 -6 -31 -12 -9 -12 -1 193 9 218
3 10 12 16 19 13 7 -2 16 -2 19 1 3 3 29 6 58 6 29 0 56 5 59 10 4 5 25 10 48
10 23 0 41 4 41 8 0 5 -7 9 -15 9 -15 0 -23 3 -84 34 -26 13 -37 14 -47 5 -8
-7 -15 -10 -17 -8 -20 36 -27 51 -27 62 0 18 -50 10 -67 -10 -10 -13 -13 -9
-18 20 -13 66 -7 72 63 72 34 0 64 -4 66 -10 3 -6 9 -3 15 5 7 10 11 11 11 3
0 -7 5 -13 10 -13 6 0 10 29 10 68 -1 52 -3 63 -11 49 -6 -10 -8 -25 -5 -32 3
-8 0 -17 -6 -21 -11 -7 -7 58 7 101 6 18 5 18 -5 3 -16 -26 -28 -22 -22 7 6
33 -14 32 -22 0 -4 -17 -11 -23 -19 -18 -6 4 -21 7 -32 8 -12 0 -20 7 -20 17
0 9 -4 20 -8 24 -13 14 -7 21 23 27 17 4 30 12 30 19 0 9 -3 9 -12 0 -7 -7
-25 -12 -41 -12 l-30 0 7 52 c11 100 14 113 29 142 19 35 8 154 -13 141 -13
-8 -20 9 -10 25 7 11 19 11 72 -6 80 -24 188 -24 328 0 58 10 123 20 145 23
76 8 87 12 80 33 -5 16 -2 20 18 20 32 0 36 6 26 38 -4 15 -13 45 -19 67 -6
22 -13 47 -16 55 -3 8 3 4 13 -9 20 -27 20 -26 35 -109 l12 -63 32 5 c29 6
163 61 246 101 33 17 36 21 32 54 -4 29 -3 32 5 15 16 -36 31 -38 31 -6 0 16
7 35 15 42 8 7 15 18 15 25 0 8 9 10 25 7 16 -3 27 1 31 11 10 28 -6 40 -27
21 -32 -28 -21 -1 11 29 36 34 31 49 -10 37 -17 -5 -30 -5 -30 0 0 11 60 23
85 18 26 -5 56 -50 57 -86 1 -37 6 -39 41 -12 17 14 23 26 20 40 -6 22 7 26
25 8 15 -15 62 5 62 26 0 8 5 18 12 22 7 4 8 3 4 -4 -4 -7 -1 -12 8 -12 24 0
28 17 12 52 -8 18 -19 50 -26 70 -6 20 -24 64 -41 98 -16 33 -29 63 -29 66 0
2 -28 46 -61 95 l-62 91 27 26 c25 25 28 26 40 9 7 -9 20 -17 28 -17 11 0 14
-7 10 -26 -3 -17 -8 -22 -15 -15 -10 10 -37 4 -37 -10 0 -4 7 -6 17 -2 13 5
15 2 11 -15 -4 -15 -2 -22 8 -22 14 0 40 -39 35 -55 -3 -10 36 -100 53 -123 5
-8 11 -21 12 -30 7 -45 23 -93 38 -107 9 -9 16 -25 16 -36 0 -25 10 -24 62 5
38 21 79 65 91 99 2 7 8 9 11 5 4 -3 -11 -34 -33 -68 -23 -34 -41 -71 -41 -82
0 -14 -5 -18 -15 -14 -11 4 -14 -1 -11 -17 4 -27 -24 -88 -36 -81 -5 4 -4 -3
3 -14 11 -17 11 -25 0 -45 -7 -13 -11 -33 -8 -43 4 -17 6 -17 12 4 4 12 11 22
16 22 15 0 10 -22 -9 -39 -23 -20 -46 -61 -34 -61 4 0 14 6 21 13 11 10 13 8
7 -13 -3 -14 -6 -29 -6 -35 0 -5 -4 -4 -9 4 -14 21 -24 -76 -23 -221 0 -109
-2 -129 -16 -138 -14 -9 -13 -10 7 -8 17 2 25 10 26 26 1 13 9 31 18 40 16 15
17 15 17 -9 0 -14 -5 -30 -10 -35 -6 -6 -14 -24 -19 -42 -8 -25 -7 -30 5 -25
8 3 14 -1 14 -11 0 -9 6 -16 13 -16 8 0 24 -9 37 -20 26 -23 33 -24 58 -11 9
5 37 19 62 30 25 12 52 25 60 30 41 22 61 31 72 31 7 0 19 9 26 20 7 11 23 20
37 20 14 0 25 6 25 13 0 6 5 4 11 -5 14 -25 24 -22 37 7 7 14 23 30 37 35 18
7 25 17 25 35 0 18 7 28 25 35 14 5 25 16 25 25 0 8 12 22 26 32 15 9 33 31
40 48 7 16 13 23 14 14 0 -9 7 -20 16 -23 8 -3 12 -2 9 4 -3 5 -1 20 6 32 l12
22 8 -23 c10 -24 29 -20 29 7 1 16 1 16 11 0 16 -28 29 -21 29 14 0 30 1 31
19 14 19 -17 20 -17 35 11 8 15 15 22 16 16 0 -17 15 -16 33 2 17 16 27 10 27
-17 0 -10 5 -18 10 -18 6 0 10 8 10 18 0 26 11 34 27 21 10 -9 16 -3 29 27 9
22 19 33 21 27 7 -19 20 -16 26 7 5 20 27 28 27 10 0 -25 18 -6 24 25 8 41 23
46 32 10 9 -36 24 -31 24 8 0 17 4 39 10 47 7 12 10 11 15 -5 4 -11 14 -33 22
-50 13 -29 14 -27 7 33 -7 67 5 82 26 32 13 -33 49 -69 37 -38 -13 36 -19 88
-9 88 14 0 28 -20 43 -62 7 -21 17 -38 21 -38 13 0 9 37 -7 76 -13 32 -11 64
4 64 10 0 51 -97 64 -152 7 -27 15 -48 19 -48 11 0 -2 119 -17 155 -7 17 -17
42 -23 57 -7 17 -8 28 -2 28 17 0 37 -43 55 -115 20 -81 34 -112 36 -80 1 11
5 2 9 -20 5 -22 5 -71 0 -110 -7 -61 -14 -207 -11 -242 1 -7 6 -13 12 -13 6 0
9 7 5 15 -7 19 4 108 13 99 6 -6 7 -11 10 -39 2 -21 21 -19 21 3 0 10 6 27 14
37 13 18 14 17 22 -16 l9 -34 5 50 c4 42 8 50 25 50 13 0 20 7 21 20 5 94 4
92 16 65 11 -24 12 -22 21 28 6 32 15 52 23 52 10 0 14 14 14 45 0 25 5 45 10
45 6 0 10 -7 10 -15 0 -8 5 -15 11 -15 6 0 10 21 9 53 -2 70 -1 77 9 77 5 0
12 -15 17 -32 19 -81 22 -84 23 -31 0 28 -3 63 -9 78 -18 47 9 17 31 -36 12
-27 27 -49 34 -49 25 0 54 -38 67 -89 7 -29 17 -51 21 -49 12 5 47 -80 47
-113 0 -19 5 -29 15 -29 14 0 16 -8 19 -63 1 -10 8 -22 16 -27 10 -7 11 -10 3
-10 -7 0 -13 -4 -13 -10 0 -5 6 -10 14 -10 8 0 14 -8 13 -18 -1 -24 23 -82 34
-82 5 0 27 -11 49 -25 39 -25 80 -33 80 -16 0 15 33 22 42 9 5 -8 8 -1 8 19 0
17 5 35 10 38 6 3 10 14 10 25 0 10 7 20 15 24 8 3 15 14 15 25 0 11 4 23 10
26 6 3 10 15 10 27 0 14 5 18 15 15 11 -5 13 0 8 23 -4 22 -1 31 11 36 10 4
15 13 12 21 -3 7 1 16 9 19 8 4 15 17 15 31 0 13 6 34 12 46 12 21 13 20 19
-18 5 -34 6 -31 6 21 0 65 6 84 28 84 8 0 13 9 13 22 -4 74 9 99 29 55 8 -17
10 -3 10 60 0 46 4 87 11 95 6 8 16 52 22 98 7 47 14 94 16 105 26 125 42 244
49 360 3 44 7 92 10 106 3 14 1 47 -5 74 -11 49 -6 71 10 45 16 -24 12 21 -5
69 -15 45 -8 52 20 21 27 -29 28 -19 5 35 -25 58 -22 73 8 44 30 -27 37 -20
17 17 -21 40 -19 45 10 38 24 -6 25 -4 19 20 -7 30 6 34 30 10 21 -20 21 -5 0
24 -10 15 -25 22 -48 22 -19 0 -39 7 -47 16 -7 9 -22 14 -36 11 -16 -3 -28 2
-38 17 -17 24 -19 36 -5 36 6 0 10 -7 10 -17 0 -9 3 -14 6 -10 4 3 23 -1 43
-9 43 -19 141 -34 141 -23 0 14 64 43 88 40 12 -1 22 3 22 9 0 7 8 10 20 7 13
-3 20 0 20 9 0 10 -14 14 -53 14 -88 0 -207 12 -207 21 0 5 22 9 48 9 27 0 57
6 68 15 17 13 17 14 2 15 -24 0 -23 32 2 48 24 14 26 32 5 32 -12 0 -15 16
-15 80 0 47 4 80 10 80 6 0 10 18 10 40 0 26 -5 40 -13 40 -14 0 -48 73 -37
80 12 8 18 189 6 193 -6 2 -10 55 -11 128 0 76 -6 132 -13 146 -7 13 -12 66
-12 137 0 71 -4 116 -10 116 -6 0 -10 33 -10 80 0 61 3 80 14 80 20 0 27 104
15 235 -5 61 -12 158 -15 217 -5 85 -9 108 -21 110 -19 4 -43 78 -43 134 0 46
-17 104 -31 104 -11 0 -3 303 10 390 12 75 7 134 -19 226 -16 56 -17 74 -8
122 6 31 19 62 27 69 13 9 15 33 14 132 -1 66 2 123 8 126 5 4 9 17 9 31 0 14
6 24 14 24 34 0 43 26 38 106 -4 61 -2 80 10 88 9 7 17 37 21 81 8 85 50 179
86 191 20 7 27 20 37 69 7 33 13 76 13 96 1 19 8 44 16 55 8 10 15 33 15 51 0
17 5 35 10 38 13 8 13 101 -1 127 -6 11 -10 46 -9 77 0 31 1 72 1 91 0 55 -16
194 -24 207 -4 6 -7 57 -8 114 -1 113 -12 185 -34 209 -22 24 -75 178 -75 218
-1 20 -7 55 -15 77 -8 22 -15 54 -15 71 0 34 -75 229 -108 284 -12 19 -22 42
-22 51 0 9 -8 27 -18 40 -18 25 -36 72 -47 127 -4 18 -18 46 -32 62 l-25 30
-1962 0 -1963 0 -35 -52z m3902 12 c0 -5 -2 -10 -4 -10 -3 0 -8 5 -11 10 -3 6
-1 10 4 10 6 0 11 -4 11 -10z m-3743 -782 c-3 -8 -6 -5 -6 6 -1 11 2 17 5 13
3 -3 4 -12 1 -19z m0 -40 c-3 -8 -6 -5 -6 6 -1 11 2 17 5 13 3 -3 4 -12 1 -19z
m-8 -188 c-5 -10 -8 5 -8 40 1 55 1 55 9 15 4 -22 4 -47 -1 -55z m806 -198
c-7 -7 -35 62 -41 101 -3 20 5 8 21 -32 14 -35 23 -66 20 -69z m-908 16 c-3
-7 -5 -2 -5 12 0 14 2 19 5 13 2 -7 2 -19 0 -25z m603 -5 c0 -32 -5 -28 -14
10 -4 19 -3 26 4 22 5 -3 10 -18 10 -32z m-80 -43 l-8 -55 -1 51 c-1 43 6 71
15 61 1 -1 -1 -27 -6 -57z m-719 -21 c-6 -16 -10 -18 -10 -7 -1 22 12 55 16
42 2 -6 -1 -22 -6 -35z m546 9 c-3 -7 -5 -2 -5 12 0 14 2 19 5 13 2 -7 2 -19
0 -25z m20 0 c-3 -8 -6 -5 -6 6 -1 11 2 17 5 13 3 -3 4 -12 1 -19z m533 -52
c0 -18 -17 8 -24 34 l-7 25 15 -25 c9 -14 15 -29 16 -34z m-539 20 c5 3 9 -2
9 -10 0 -9 4 -16 10 -16 5 0 7 -7 4 -15 -4 -8 -10 -12 -15 -9 -5 3 -6 10 -3
16 5 7 2 9 -7 6 -10 -4 -14 3 -15 21 -1 14 1 20 3 13 3 -6 9 -10 14 -6z m-206
-153 c3 -21 8 -51 11 -68 3 -18 1 -26 -5 -20 -5 6 -11 28 -13 50 -3 22 -8 48
-12 58 -5 10 -4 17 2 17 6 0 14 -17 17 -37z m32 -15 c-3 -8 -6 -5 -6 6 -1 11
2 17 5 13 3 -3 4 -12 1 -19z m12 -158 c0 -23 -15 7 -22 45 l-6 30 14 -30 c8
-16 14 -37 14 -45z m-259 -17 c0 -7 -4 -13 -10 -13 -5 0 -10 12 -10 28 0 21 2
24 10 12 5 -8 10 -21 10 -27z m-263 -85 c-3 -7 -5 -2 -5 12 0 14 2 19 5 13 2
-7 2 -19 0 -25z m-17 -49 c0 -6 -4 -7 -10 -4 -5 3 -10 11 -10 16 0 6 5 7 10 4
6 -3 10 -11 10 -16z m790 2 c0 -5 2 -16 5 -23 4 -9 -7 -20 -30 -31 -48 -23
-52 -22 -47 11 3 24 8 28 28 24 17 -3 24 0 24 12 0 9 5 16 10 16 6 0 10 -4 10
-9z m87 -27 c-3 -3 -12 -4 -19 -1 -8 3 -5 6 6 6 11 1 17 -2 13 -5z m-447 -25
c0 -5 -4 -9 -10 -9 -5 0 -10 7 -10 16 0 8 5 12 10 9 6 -3 10 -10 10 -16z m870
2 c21 -5 -31 -6 -132 -3 -107 3 -177 1 -195 -6 -15 -6 -49 -13 -75 -17 -32 -4
-48 -11 -48 -21 0 -8 5 -14 11 -14 5 0 7 -6 4 -12 -4 -7 1 -4 10 7 14 17 17
18 25 5 8 -12 10 -10 11 10 1 22 2 23 7 5 9 -26 39 -31 45 -8 4 16 6 16 12 -3
6 -20 9 -20 43 -8 20 7 45 13 55 14 10 0 25 7 34 15 14 14 17 14 34 -1 10 -9
22 -13 28 -10 5 4 12 2 15 -3 3 -5 22 -12 41 -15 19 -4 35 -13 35 -20 0 -8 7
-19 16 -27 31 -26 45 -66 32 -94 -8 -18 -17 -24 -30 -19 -10 3 -18 0 -18 -6 0
-6 -6 -10 -12 -9 -34 7 -193 -26 -212 -43 -6 -4 -17 -8 -27 -8 -14 0 -47 -12
-151 -54 -35 -14 -37 -30 -3 -24 17 4 25 1 25 -9 0 -10 6 -12 19 -8 16 5 18 2
14 -14 -4 -18 -1 -20 29 -19 18 1 42 -4 53 -9 11 -6 28 -7 38 -4 17 6 17 8 3
20 -21 18 -20 37 3 60 12 12 27 17 41 14 13 -4 26 1 34 12 7 10 18 15 25 11 6
-4 18 -3 26 4 10 8 19 8 34 0 12 -6 21 -8 21 -4 0 20 29 -22 32 -48 4 -24 1
-32 -14 -36 -23 -6 -23 -5 7 -57 l26 -43 -38 -4 c-35 -4 -82 7 -112 26 -7 5
-16 5 -20 0 -3 -5 -14 -9 -23 -9 -31 0 -21 -20 14 -29 18 -6 38 -16 43 -23 6
-7 25 -14 43 -16 18 -2 38 -9 44 -15 7 -7 26 -12 43 -12 17 0 40 -7 51 -15 10
-8 27 -15 37 -15 9 0 17 -4 17 -9 0 -5 26 -17 57 -26 31 -9 62 -24 69 -33 10
-14 17 -14 55 -3 73 20 99 33 99 47 0 8 5 14 11 14 7 0 9 9 6 23 -5 17 1 27
30 45 32 21 35 27 30 57 -3 19 -17 51 -31 72 -14 21 -26 41 -26 46 0 10 45
-20 83 -55 26 -23 57 -28 57 -9 0 4 9 17 20 29 19 20 19 22 3 22 -17 1 -17 1
0 15 19 14 17 45 -6 73 -5 7 -7 15 -4 19 4 3 1 15 -5 27 -10 19 -8 18 17 -4
93 -84 168 -234 200 -394 55 -282 -130 -614 -420 -756 -123 -60 -192 -79 -315
-87 -207 -12 -371 41 -556 182 -144 111 -255 282 -305 470 -26 101 -37 315
-19 398 33 162 157 314 312 386 81 38 182 66 263 75 57 6 264 -3 305 -13z
m-934 -17 c4 -14 4 -41 1 -60 -3 -18 -2 -34 2 -34 9 0 25 57 22 78 -1 6 3 12
8 12 18 0 41 -44 42 -80 l1 -35 7 30 c7 33 22 37 31 9 5 -13 9 -14 14 -5 5 7
1 20 -8 30 -9 10 -16 26 -16 37 1 18 1 18 12 -1 15 -27 48 -58 48 -45 0 5 5
10 11 10 7 0 9 -9 5 -24 -4 -15 -1 -26 6 -28 8 -3 -2 -21 -25 -49 -41 -47
-113 -187 -123 -238 -8 -39 -17 -45 -60 -37 l-34 7 0 75 c0 41 4 83 9 92 7 14
20 169 21 260 0 30 18 28 26 -4z m1007 -1 c-7 -2 -19 -2 -25 0 -7 3 -2 5 12 5
14 0 19 -2 13 -5z m502 -13 c3 -6 17 -7 30 -4 20 5 25 1 31 -23 4 -15 16 -37
27 -47 19 -19 19 -19 13 0 -5 15 -1 19 19 19 15 0 23 -5 21 -11 -3 -7 6 -22
20 -35 14 -13 24 -17 24 -10 0 7 9 3 20 -10 18 -23 19 -23 20 -4 l1 20 16 -20
c15 -19 15 -19 9 10 -5 24 -4 26 4 13 13 -21 40 -24 41 -5 0 10 2 10 6 0 2 -7
12 -13 20 -13 9 0 13 -6 10 -14 -3 -8 4 -18 18 -24 13 -6 25 -21 27 -34 2 -13
15 -28 29 -35 23 -11 28 -22 34 -70 4 -32 12 -61 19 -65 8 -6 8 -8 -1 -8 -6 0
-9 -9 -6 -20 5 -19 0 -20 -69 -20 -91 0 -176 -15 -198 -35 -25 -23 -35 -18
-49 23 -20 58 -86 162 -135 215 -26 28 -43 54 -39 63 3 8 1 14 -5 14 -6 0 -12
-5 -14 -11 -2 -6 -11 -2 -21 9 -15 17 -16 21 -3 31 12 10 13 9 9 -9 -4 -14 -2
-19 8 -15 16 6 22 85 8 85 -5 0 -9 5 -9 11 0 6 6 9 14 6 8 -3 16 2 19 14 6 20
22 25 32 9z m345 -100 c0 -5 -4 -10 -9 -10 -6 0 -13 5 -16 10 -3 6 1 10 9 10
9 0 16 -4 16 -10z m-425 -98 c-3 -3 -11 0 -18 7 -9 10 -8 11 6 5 10 -3 15 -9
12 -12z m-1557 -182 l0 -25 -8 25 c-4 14 -8 36 -8 50 l0 25 8 -25 c4 -14 8
-36 8 -50z m41 -82 l-1 -43 -12 40 c-7 23 -14 34 -17 26 -4 -12 -7 -12 -12 2
-5 13 -1 17 18 17 23 0 25 -4 24 -42z m-32 -30 c-3 -8 -6 -5 -6 6 -1 11 2 17
5 13 3 -3 4 -12 1 -19z m2448 -52 c-33 -87 -44 -138 -51 -238 -3 -46 -8 -85
-10 -87 -9 -9 -3 149 7 204 10 55 67 200 76 192 2 -2 -8 -34 -22 -71z m1405
60 c0 -2 7 -20 16 -41 8 -20 11 -35 7 -33 -52 25 -63 34 -63 50 0 11 5 16 10
13 6 -3 10 -1 10 4 0 6 5 11 10 11 6 0 10 -2 10 -4z m29 -107 c10 16 21 -69
21 -162 0 -113 -47 -298 -101 -393 -91 -162 -206 -272 -377 -358 -30 -15 -61
-26 -69 -24 -9 2 10 14 43 27 54 22 90 45 137 86 9 8 20 15 25 15 4 0 26 18
49 39 31 28 41 45 37 58 -4 12 -3 14 3 5 7 -10 14 -7 29 9 18 22 18 22 0 16
-18 -7 -18 -6 -1 20 23 34 35 173 15 173 -9 0 -10 3 -1 13 16 20 2 147 -16
147 -8 0 -11 5 -8 10 5 8 11 8 20 0 17 -14 29 3 20 29 -3 11 -2 28 3 38 6 10
16 43 22 73 7 30 19 64 26 75 6 11 15 36 19 55 4 19 11 43 16 52 9 16 11 16
45 1 28 -14 37 -15 43 -4z m-2042 -181 c-3 -8 -6 -5 -6 6 -1 11 2 17 5 13 3
-3 4 -12 1 -19z m443 -102 c0 -39 -6 -30 -13 19 -4 27 -3 35 3 25 5 -8 10 -28
10 -44z m1551 -289 c-10 -9 -11 -8 -5 6 3 10 9 15 12 12 3 -3 0 -11 -7 -18z
m-534 -383 c-3 -3 -12 -4 -19 -1 -8 3 -5 6 6 6 11 1 17 -2 13 -5z m-1152 -296
c-10 -44 -12 -47 -35 -41 -31 8 -24 53 10 66 28 10 32 7 25 -25z m260 -528
c-28 -12 -37 -12 -30 0 3 6 16 10 28 9 21 0 21 -1 2 -9z m48 -59 c3 -14 -1
-18 -19 -18 -14 0 -27 3 -30 8 -3 5 2 6 10 3 11 -4 16 0 16 10 0 22 17 20 23
-3z m1209 -293 c2 -132 2 -130 -11 -228 -4 -36 -9 -55 -10 -42 -1 26 -21 20
-21 -6 0 -10 -13 -26 -30 -35 -17 -10 -30 -13 -30 -8 0 6 -4 11 -10 11 -5 0
-10 -7 -10 -15 0 -8 5 -15 10 -15 6 0 10 -7 10 -16 0 -12 -7 -14 -29 -9 -22 5
-32 2 -40 -12 -6 -10 -11 -13 -11 -6 0 7 -7 10 -17 6 -11 -4 -14 -3 -9 5 5 8
0 12 -12 12 -11 0 -25 7 -32 15 -10 13 -10 19 2 33 8 9 27 38 42 65 15 26 31
47 36 47 6 0 10 6 10 13 0 7 9 20 20 30 11 9 20 28 20 42 0 14 8 40 17 58 9
18 17 34 16 37 -4 15 57 115 67 112 8 -2 10 3 7 13 -4 8 -2 15 3 15 6 0 11
-51 12 -122z m-2017 83 c3 -5 1 -12 -5 -16 -5 -3 -10 1 -10 9 0 18 6 21 15 7z
m195 -241 c-18 -33 -25 -15 -9 22 9 23 15 28 17 16 2 -9 -2 -27 -8 -38z m2436
-856 c-7 -19 -26 -18 -26 1 0 8 5 15 10 15 6 0 11 8 11 18 1 16 2 16 6 -1 3
-10 2 -25 -1 -33z m-2351 -14 c3 -5 -1 -10 -10 -10 -9 0 -13 5 -10 10 3 6 8
10 10 10 2 0 7 -4 10 -10z m35 -46 c0 -2 -7 -4 -15 -4 -8 0 -15 4 -15 10 0 5
7 7 15 4 8 -4 15 -8 15 -10z m-1772 -125 c-7 -13 -25 -39 -39 -57 -29 -36 -28
-64 1 -85 9 -7 21 -27 24 -45 4 -17 14 -32 21 -32 7 0 16 -7 19 -17 6 -15 7
-15 19 0 11 15 17 13 65 -23 28 -22 52 -36 52 -32 0 4 6 0 13 -9 7 -8 20 -18
30 -22 10 -4 16 -11 13 -16 -4 -5 27 -26 68 -45 41 -20 91 -52 112 -71 20 -19
41 -35 45 -35 5 0 9 -4 9 -10 0 -5 12 -13 27 -16 49 -13 92 -47 87 -69 -4 -14
-3 -16 4 -7 9 14 42 6 42 -10 0 -5 4 -6 10 -3 11 7 60 -23 60 -36 0 -5 -8 -8
-17 -7 -10 1 -26 0 -36 0 -17 -2 -17 -3 -3 -18 20 -19 20 -28 1 -44 -8 -7 -15
-16 -15 -21 0 -16 28 -10 34 7 5 13 9 14 22 4 8 -7 12 -20 9 -28 -3 -10 0 -12
10 -8 8 3 15 0 15 -6 0 -7 4 -7 13 0 8 7 18 7 27 2 11 -7 12 -10 2 -10 -32 0
-56 -52 -29 -64 8 -3 6 -10 -8 -23 -32 -29 -105 -120 -105 -131 0 -6 -14 -38
-31 -71 -29 -57 -31 -66 -26 -138 3 -43 9 -91 13 -108 7 -27 6 -29 -9 -16 -10
7 -17 20 -17 27 0 8 -6 14 -13 14 -23 0 -58 45 -46 57 8 8 4 16 -15 28 -28 19
-36 41 -11 31 12 -4 15 3 15 29 0 35 -13 47 -24 23 -3 -7 -3 -1 -1 14 2 17 -2
29 -11 32 -19 7 -28 -17 -21 -53 7 -33 0 -45 -17 -28 -9 8 -10 24 -3 59 7 34
7 52 -1 60 -16 16 -32 0 -32 -32 0 -35 -13 -45 -30 -25 -11 13 -10 14 4 9 12
-5 16 0 16 23 0 16 5 34 12 41 8 8 9 12 1 12 -6 0 -19 -8 -29 -17 -16 -17 -17
-15 -10 36 4 30 12 63 18 74 8 17 6 23 -13 38 -30 22 -38 16 -14 -11 14 -15
15 -23 6 -34 -6 -8 -11 -18 -10 -22 1 -5 1 -17 0 -26 -2 -29 -18 -20 -23 12
-3 17 -1 30 4 30 4 0 8 6 8 14 0 9 -8 12 -26 8 -23 -4 -25 -2 -19 17 5 15 2
21 -9 21 -19 0 -20 5 -5 31 5 11 14 17 20 14 14 -9 10 7 -6 29 -13 17 -15 17
-15 3 0 -16 -28 -37 -49 -37 -18 0 -32 73 -21 109 9 31 8 33 -14 29 -18 -4
-22 -1 -19 13 3 9 -5 27 -16 38 -19 19 -26 40 -22 64 1 4 -10 12 -25 17 -14 6
-23 14 -20 19 3 5 -5 20 -19 32 -30 29 -31 35 -6 42 12 3 22 -1 25 -9 8 -22
23 -17 28 10 4 19 1 22 -14 18 -10 -2 -18 1 -18 6 0 6 -14 26 -31 43 -27 28
-29 33 -15 41 20 11 21 28 1 28 -8 0 -15 -4 -15 -10 0 -21 -19 -8 -29 20 -5
17 -7 30 -4 30 3 0 -2 8 -11 19 -9 10 -22 45 -27 77 -10 56 -10 62 16 107 15
27 34 51 41 54 8 3 14 11 14 17 0 13 21 38 28 32 2 -2 -3 -15 -10 -27z m3932
11 c0 -5 -2 -10 -4 -10 -3 0 -8 5 -11 10 -3 6 -1 10 4 10 6 0 11 -4 11 -10z
m-3926 -418 c9 -7 16 -20 16 -29 0 -14 -3 -14 -21 3 -22 19 -22 19 -17 -8 6
-35 -5 -36 -20 -3 -8 18 -8 25 -1 25 6 0 8 7 5 15 -20 51 -20 49 2 29 11 -10
28 -25 36 -32z m26 -168 c0 -2 -7 -4 -15 -4 -8 0 -15 4 -15 10 0 5 7 7 15 4 8
-4 15 -8 15 -10z m1230 -48 c0 -15 -18 -31 -26 -23 -7 7 7 37 17 37 5 0 9 -6
9 -14z m90 -6 c0 -5 -4 -10 -10 -10 -5 0 -10 5 -10 10 0 6 5 10 10 10 6 0 10
-4 10 -10z m-690 -50 c0 -5 -2 -10 -4 -10 -3 0 -8 5 -11 10 -3 6 -1 10 4 10 6
0 11 -4 11 -10z m-2150 -20 c0 -5 -4 -10 -10 -10 -5 0 -10 5 -10 10 0 6 5 10
10 10 6 0 10 -4 10 -10z m2250 0 c0 -5 -7 -10 -15 -10 -8 0 -15 -4 -15 -10 0
-5 -7 -10 -15 -10 -17 0 -18 2 -9 24 7 17 54 22 54 6z m646 -37 c-11 -11 -19
6 -11 24 8 17 8 17 12 0 3 -10 2 -21 -1 -24z m-601 -33 c3 -5 1 -10 -4 -10 -6
0 -11 5 -11 10 0 6 2 10 4 10 3 0 8 -4 11 -10z m965 0 c0 -5 -5 -10 -11 -10
-5 0 -7 5 -4 10 3 6 8 10 11 10 2 0 4 -4 4 -10z m220 -4 c0 -3 -4 -8 -10 -11
-5 -3 -10 -1 -10 4 0 6 5 11 10 11 6 0 10 -2 10 -4z m-1230 -25 c0 -10 -22
-31 -32 -31 -6 0 -5 28 1 47 2 5 31 -10 31 -16z m946 -44 c-6 -32 -14 -55 -18
-52 -5 5 5 61 18 104 11 34 11 1 0 -52z m-1499 7 c-3 -3 -12 -4 -19 -1 -8 3
-5 6 6 6 11 1 17 -2 13 -5z m890 -77 c-7 -5 1 -6 18 -4 17 2 24 2 18 0 -22 -8
-14 -21 16 -28 35 -7 89 -61 75 -75 -6 -6 -16 1 -29 20 -11 17 -26 28 -32 25
-7 -2 -13 0 -13 4 0 5 -22 14 -50 21 -27 7 -50 15 -50 19 0 4 -12 12 -27 18
-25 10 -22 11 29 9 32 0 51 -5 45 -9z m-2724 -23 c-6 -17 -25 -14 -31 4 -2 8
3 10 14 5 13 -5 15 -3 9 7 -5 8 -4 11 3 6 6 -4 9 -13 5 -22z m-3 -69 c0 -9 -9
-15 -21 -15 -18 0 -19 2 -9 15 7 8 16 15 21 15 5 0 9 -7 9 -15z m2690 -17 c0
-19 -2 -20 -10 -8 -13 19 -13 30 0 30 6 0 10 -10 10 -22z m500 -3 c-7 -9 -15
-13 -19 -10 -3 3 1 10 9 15 21 14 24 12 10 -5z m-3327 -26 c-9 -9 -12 -7 -10
9 1 14 5 18 11 12 7 -7 6 -14 -1 -21z m272 21 c-3 -5 -13 -10 -21 -10 -8 0
-14 5 -14 10 0 6 9 10 21 10 11 0 17 -4 14 -10z m2600 -10 c3 -5 1 -10 -4 -10
-6 0 -11 5 -11 10 0 6 2 10 4 10 3 0 8 -4 11 -10z m1763 -16 c21 -20 22 -24 6
-16 -22 11 -51 42 -40 42 4 0 19 -12 34 -26z m-4725 -28 c5 -34 5 -37 -7 -20
-8 10 -12 25 -11 33 2 9 4 20 4 25 2 18 8 0 14 -38z m3003 11 c9 3 14 -2 14
-15 0 -11 -7 -22 -15 -26 -9 -3 -15 0 -15 9 0 8 -7 15 -15 15 -8 0 -15 6 -15
14 0 19 24 27 28 10 2 -7 10 -10 18 -7z m-766 3 c0 -5 -4 -10 -10 -10 -5 0
-10 5 -10 10 0 6 5 10 10 10 6 0 10 -4 10 -10z m-1750 -15 c0 -9 -6 -12 -16
-8 -13 5 -13 7 -2 14 17 11 18 11 18 -6z m2595 -17 c3 -3 -1 -11 -10 -18 -10
-8 -15 -9 -15 -1 0 6 -7 11 -15 11 -8 0 -15 4 -15 9 0 10 46 9 55 -1z m-47
-42 c0 -22 -3 -23 -19 -13 -22 14 -24 23 -6 30 22 9 25 7 25 -17z m61 -38 c6
-17 9 -33 7 -35 -2 -3 -7 5 -11 16 -3 12 -11 21 -16 21 -5 0 -9 7 -9 15 0 26
18 16 29 -17z m-3159 -2 c0 -2 -7 -9 -15 -16 -13 -11 -14 -10 -9 4 5 14 24 23
24 12z m3120 -26 c0 -5 -4 -10 -10 -10 -5 0 -10 5 -10 10 0 6 5 10 10 10 6 0
10 -4 10 -10z m1600 -45 c0 -17 -2 -17 -10 -5 -5 8 -10 24 -10 35 0 17 2 17
10 5 5 -8 10 -24 10 -35z m291 7 c-7 -2 -18 1 -23 6 -8 8 -4 9 13 5 13 -4 18
-8 10 -11z m-1638 -7 c-3 -9 -8 -14 -10 -11 -3 3 -2 9 2 15 9 16 15 13 8 -4z
m-2683 -5 c0 -5 -4 -10 -10 -10 -5 0 -10 5 -10 10 0 6 5 10 10 10 6 0 10 -4
10 -10z m-45 -30 c-3 -5 -11 -10 -16 -10 -6 0 -7 5 -4 10 3 6 11 10 16 10 6 0
7 -4 4 -10z m-21 -29 c3 -5 -3 -11 -14 -14 -20 -5 -26 3 -13 16 9 10 21 9 27
-2z m3016 -42 c0 -10 -4 -19 -10 -19 -5 0 -10 12 -10 26 0 14 4 23 10 19 6 -3
10 -15 10 -26z m-3074 -24 c-12 -18 -15 -36 -11 -55 5 -23 2 -31 -14 -40 -17
-9 -21 -8 -21 5 0 8 4 23 9 33 5 9 17 34 26 55 9 21 19 36 22 33 3 -3 -2 -17
-11 -31z m1901 9 c-9 -9 -28 6 -21 18 4 6 10 6 17 -1 6 -6 8 -13 4 -17z m-82
-4 c-3 -5 -10 -10 -16 -10 -5 0 -9 5 -9 10 0 6 7 10 16 10 8 0 12 -4 9 -10z
m-12 -50 c3 -11 1 -20 -4 -20 -5 0 -9 9 -9 20 0 11 2 20 4 20 2 0 6 -9 9 -20z
m127 -26 c0 -8 -5 -12 -10 -9 -6 4 -8 11 -5 16 9 14 15 11 15 -7z m-2513 -76
c-3 -8 -6 -5 -6 6 -1 11 2 17 5 13 3 -3 4 -12 1 -19z m2430 -30 c-3 -7 -5 -2
-5 12 0 14 2 19 5 13 2 -7 2 -19 0 -25z m-1480 -20 c-3 -8 -6 -5 -6 6 -1 11 2
17 5 13 3 -3 4 -12 1 -19z m-402 -32 c-17 -26 -17 -68 -1 -121 4 -11 0 -6 -8
10 -8 17 -15 46 -16 66 0 41 21 92 33 80 5 -5 1 -21 -8 -35z m2779 9 c3 -8 1
-15 -4 -15 -6 0 -10 7 -10 15 0 8 2 15 4 15 2 0 6 -7 10 -15z m-2367 -32 c-3
-10 -5 -4 -5 12 0 17 2 24 5 18 2 -7 2 -21 0 -30z m-937 -3 c0 -5 -2 -10 -4
-10 -3 0 -8 5 -11 10 -3 6 -1 10 4 10 6 0 11 -4 11 -10z m547 -38 c-9 -11 -12
-10 -19 8 -11 30 1 45 17 23 10 -13 10 -21 2 -31z m1315 -14 c3 -27 2 -48 -3
-48 -5 0 -9 23 -9 52 0 62 5 60 12 -4z m1441 -38 c-3 -11 -9 -20 -14 -20 -11
0 -11 3 -3 24 9 23 23 20 17 -4z m54 -62 c-3 -8 -6 -5 -6 6 -1 11 2 17 5 13 3
-3 4 -12 1 -19z m-2687 -202 c0 -18 -28 -41 -38 -31 -4 4 -1 10 6 12 6 3 12
11 12 19 0 8 5 14 10 14 6 0 10 -6 10 -14z m1289 -130 c-9 -8 -10 -5 -5 14 3
14 6 32 7 40 1 8 4 2 6 -14 3 -16 -1 -34 -8 -40z m-1758 -61 c-34 -53 -61 -99
-61 -103 -1 -10 -40 -59 -40 -50 0 17 150 261 157 255 2 -3 -23 -49 -56 -102z
m698 74 c17 -6 31 -17 31 -24 0 -10 -8 -9 -35 3 -19 9 -35 20 -35 24 0 10 1
10 39 -3z m66 -167 c-7 -7 -45 33 -45 48 0 9 9 4 24 -15 13 -16 23 -31 21 -33z
m81 -97 c23 -36 14 -38 -14 -4 -13 16 -19 29 -13 29 6 0 18 -11 27 -25z m694
-582 c0 -7 -4 -13 -9 -13 -5 0 -11 6 -14 13 -3 8 1 14 9 14 8 0 14 -6 14 -14z
m260 -192 c0 -5 -7 -11 -15 -15 -15 -5 -20 5 -8 17 9 10 23 9 23 -2z m-83
-108 c-3 -10 -5 -2 -5 17 0 19 2 27 5 18 2 -10 2 -26 0 -35z m78 -30 c-9 -8
-18 -13 -21 -10 -8 8 19 36 29 30 4 -2 0 -11 -8 -20z m-515 -132 c0 -11 -4 -9
-15 5 -8 10 -15 25 -15 33 0 11 4 9 15 -5 8 -10 15 -25 15 -33z m507 -13 c-3
-7 -5 -2 -5 12 0 14 2 19 5 13 2 -7 2 -19 0 -25z m33 -30 c0 -7 -5 -20 -10
-28 -8 -12 -10 -9 -10 13 0 15 5 27 10 27 6 0 10 -6 10 -12z m-40 -44 c0 -8
-5 -12 -10 -9 -6 4 -8 11 -5 16 9 14 15 11 15 -7z m-415 -95 c-3 -4 -1 -10 5
-14 12 -8 13 -25 1 -25 -14 0 -41 65 -41 97 1 27 1 27 20 -11 11 -21 17 -42
15 -47z"/>
<path d="M2370 7685 c0 -8 4 -15 10 -15 5 0 7 7 4 15 -4 8 -8 15 -10 15 -2 0
-4 -7 -4 -15z"/>
<path d="M2215 7625 c-27 -19 -53 -42 -58 -51 -7 -12 -6 -15 2 -9 7 4 18 -1
26 -11 9 -12 14 -14 15 -6 0 8 8 10 25 6 21 -5 25 -3 25 15 0 24 10 27 28 9 9
-9 12 -7 13 13 0 13 2 34 3 47 4 32 -22 28 -79 -13z"/>
<path d="M2020 7383 c-27 -59 -55 -232 -34 -211 6 6 7 14 23 114 6 33 15 73
21 89 14 37 7 43 -10 8z"/>
<path d="M3340 7244 c0 -8 5 -12 10 -9 6 4 8 11 5 16 -9 14 -15 11 -15 -7z"/>
<path d="M1981 7104 c0 -11 3 -14 6 -6 3 7 2 16 -1 19 -3 4 -6 -2 -5 -13z"/>
<path d="M3461 7674 c0 -11 3 -14 6 -6 3 7 2 16 -1 19 -3 4 -6 -2 -5 -13z"/>
<path d="M2085 3496 c12 -8 16 -19 12 -30 -5 -11 -3 -16 5 -14 6 2 13 9 15 15
5 13 -24 43 -40 43 -6 0 -2 -6 8 -14z"/>
<path d="M2030 3439 c0 -6 -7 -9 -15 -5 -8 3 -15 1 -15 -4 0 -6 7 -10 15 -10
8 0 15 -7 15 -15 0 -8 4 -15 8 -15 5 0 9 14 9 30 0 17 -4 30 -9 30 -4 0 -8 -5
-8 -11z"/>
<path d="M2080 3427 c0 -8 7 -17 15 -21 8 -3 15 -2 15 3 0 5 -7 14 -15 21 -12
10 -15 10 -15 -3z"/>
<path d="M2154 3349 c-4 -7 -3 -9 4 -5 6 3 14 -3 17 -14 4 -12 12 -19 18 -17
16 5 32 35 24 44 -5 4 -12 1 -17 -7 -7 -11 -11 -11 -23 -1 -12 9 -17 9 -23 0z"/>
<path d="M2216 3305 c-3 -8 -1 -15 4 -15 6 0 10 7 10 15 0 8 -2 15 -4 15 -2 0
-6 -7 -10 -15z"/>
<path d="M2098 3285 c-6 -28 18 -55 48 -55 16 0 15 -4 -10 -25 -16 -14 -25
-25 -20 -25 5 0 14 -10 19 -22 6 -12 16 -23 23 -24 7 -1 8 0 2 3 -5 2 -10 13
-10 24 0 10 -5 19 -11 19 -5 0 -7 5 -4 10 11 18 35 11 28 -7 -7 -17 -5 -17 17
-2 33 22 37 39 8 39 -17 0 -19 3 -9 9 23 15 3 31 -31 24 -22 -4 -29 -3 -24 5
4 6 14 8 24 5 13 -5 14 -3 5 7 -6 7 -9 19 -6 26 3 10 -3 14 -20 14 -18 0 -26
-6 -29 -25z"/>
<path d="M2370 3244 c0 -14 -7 -32 -15 -40 -8 -9 -15 -11 -15 -5 0 6 -7 11
-15 11 -8 0 -15 6 -15 14 0 14 -29 31 -38 22 -2 -3 6 -19 19 -37 15 -22 19
-34 11 -37 -7 -2 -12 -16 -12 -30 0 -21 2 -24 10 -12 8 13 10 12 10 -4 0 -19
1 -19 20 2 24 25 36 28 44 10 3 -9 8 -8 16 5 16 24 27 21 35 -10 4 -16 10 -22
12 -16 6 18 33 -9 33 -33 0 -10 3 -14 7 -11 3 4 12 -1 20 -11 10 -12 16 -14
19 -4 3 6 11 12 19 12 7 0 18 7 26 16 10 12 10 17 0 23 -7 5 -11 17 -9 27 2
14 -2 19 -17 17 -11 -1 -23 4 -27 10 -6 9 -10 9 -16 0 -6 -9 -12 -7 -25 8 -10
11 -21 18 -26 15 -4 -3 -6 6 -3 19 3 18 0 25 -12 25 -9 0 -25 9 -36 20 l-20
20 0 -26z m20 -64 c0 -5 -2 -10 -4 -10 -3 0 -8 5 -11 10 -3 6 -1 10 4 10 6 0
11 -4 11 -10z"/>
<path d="M2210 3236 c0 -2 7 -9 15 -16 12 -10 15 -10 15 4 0 9 -7 16 -15 16
-8 0 -15 -2 -15 -4z"/>
<path d="M2090 3204 c0 -8 5 -12 10 -9 6 3 10 10 10 16 0 5 -4 9 -10 9 -5 0
-10 -7 -10 -16z"/>
<path d="M2214 3187 l-40 -32 53 -2 c30 -2 53 2 53 7 0 6 -7 10 -15 10 -18 0
-20 21 -3 38 25 25 -9 10 -48 -21z"/>
<path d="M2248 3133 c-10 -2 -18 -12 -18 -20 0 -14 3 -14 20 2 17 15 26 28 18
24 -2 -1 -11 -3 -20 -6z"/>
<path d="M2400 3114 c0 -8 5 -12 10 -9 6 4 8 11 5 16 -9 14 -15 11 -15 -7z"/>
<path d="M2169 3054 c0 -5 -2 -19 -3 -31 -2 -17 3 -23 16 -23 10 0 18 6 18 13
-1 15 -30 55 -31 41z"/>
<path d="M2235 3040 c3 -5 10 -10 16 -10 5 0 9 5 9 10 0 6 -7 10 -16 10 -8 0
-12 -4 -9 -10z"/>
<path d="M2544 3009 c-15 -30 -15 -31 1 -25 9 3 20 6 25 6 4 0 10 11 12 25 7
36 -18 32 -38 -6z"/>
<path d="M2367 3004 c-8 -8 1 -24 14 -24 5 0 9 7 9 15 0 15 -12 20 -23 9z"/>
<path d="M2600 2996 c0 -9 5 -16 10 -16 6 0 10 4 10 9 0 6 -4 13 -10 16 -5 3
-10 -1 -10 -9z"/>
<path d="M2500 2949 c0 -5 5 -7 10 -4 6 3 10 8 10 11 0 2 -4 4 -10 4 -5 0 -10
-5 -10 -11z"/>
<path d="M2646 2935 c4 -8 1 -15 -5 -15 -6 0 -11 -5 -11 -11 0 -8 5 -8 15 1
17 14 20 40 5 40 -5 0 -7 -7 -4 -15z"/>
<path d="M2401 2927 c-6 -8 -7 -17 -3 -21 4 -4 -2 -14 -12 -22 -11 -8 -15 -14
-9 -14 14 0 29 20 36 48 6 25 4 27 -12 9z"/>
<path d="M2430 2844 c-13 -33 -13 -37 1 -28 7 4 20 -4 30 -17 10 -13 19 -19
19 -12 0 7 7 10 15 7 23 -9 18 10 -10 34 -14 12 -25 26 -25 32 0 20 -21 9 -30
-16z"/>
<path d="M2413 2760 c1 -11 5 -20 9 -20 11 0 10 28 -1 35 -6 3 -9 -4 -8 -15z"/>
<path d="M2510 2756 c0 -14 4 -26 8 -26 11 0 32 22 32 34 0 5 -3 6 -7 3 -3 -4
-12 -2 -20 4 -10 9 -13 6 -13 -15z"/>
<path d="M2480 2620 c0 -5 5 -10 10 -10 6 0 10 5 10 10 0 6 -4 10 -10 10 -5 0
-10 -4 -10 -10z"/>
<path d="M3630 6679 c0 -5 5 -7 10 -4 6 3 10 8 10 11 0 2 -4 4 -10 4 -5 0 -10
-5 -10 -11z"/>
<path d="M3235 6302 c-11 -2 -24 -10 -28 -18 -4 -8 -15 -14 -23 -14 -8 0 -12
-5 -9 -10 3 -6 0 -16 -7 -24 -18 -17 -11 -96 8 -96 21 0 64 45 64 68 0 11 6
23 13 25 9 4 8 8 -3 16 -12 9 -13 13 -2 20 20 13 10 37 -13 33z"/>
<path d="M3563 6109 c-37 -7 -80 -33 -105 -63 -22 -27 -24 -84 -3 -93 14 -5
114 20 140 36 6 3 21 7 35 9 14 2 26 7 28 13 2 5 14 6 26 3 15 -3 29 3 46 21
28 30 23 37 -45 58 -73 22 -87 24 -122 16z"/>
<path d="M3464 4176 c-27 -20 -13 -29 19 -13 15 8 24 17 20 20 -9 10 -17 9
-39 -7z"/>
<path d="M3586 4048 c-12 -16 -18 -19 -22 -10 -8 17 -24 15 -46 -5 -19 -17
-20 -16 -37 6 -12 16 -24 22 -35 18 -24 -9 -18 -80 7 -85 10 -2 17 3 17 12 0
11 9 16 28 15 16 0 21 -3 12 -6 -30 -12 -57 -70 -27 -60 6 2 12 10 12 18 0 8
5 17 10 21 15 11 35 10 35 -2 0 -5 -7 -10 -15 -10 -20 0 -19 -16 1 -24 22 -9
34 1 34 29 0 13 9 30 20 38 11 8 17 17 12 21 -4 5 2 6 13 4 14 -2 21 3 23 20
2 14 -2 22 -11 22 -8 0 -22 -10 -31 -22z"/>
<path d="M3628 3993 c7 -3 16 -2 19 1 4 3 -2 6 -13 5 -11 0 -14 -3 -6 -6z"/>
<path d="M3140 3069 c-15 -28 0 -43 25 -25 18 13 18 15 2 30 -15 15 -17 15
-27 -5z"/>
<path d="M1971 2117 c0 -27 3 -46 8 -43 12 8 24 -26 13 -33 -16 -11 -21 -51
-6 -51 8 0 11 6 7 15 -3 10 0 15 8 13 9 -2 15 7 17 24 3 24 28 45 40 33 3 -3
0 -5 -6 -5 -7 0 -12 -9 -12 -20 0 -11 5 -20 10 -20 6 0 10 4 10 9 0 5 6 16 14
23 11 12 10 18 -6 38 -14 17 -21 21 -27 11 -6 -9 -11 -8 -21 4 -9 11 -16 12
-26 5 -10 -9 -14 -5 -17 17 -2 18 -5 10 -6 -20z"/>
<path d="M1 2004 c0 -11 3 -14 6 -6 3 7 2 16 -1 19 -3 4 -6 -2 -5 -13z"/>
<path d="M1951 1984 c0 -11 3 -14 6 -6 3 7 2 16 -1 19 -3 4 -6 -2 -5 -13z"/>
<path d="M1972 1969 c2 -6 8 -10 13 -10 5 0 11 4 13 10 2 6 -4 11 -13 11 -9 0
-15 -5 -13 -11z"/>
<path d="M576 1954 c-9 -24 -7 -28 9 -14 17 14 20 30 6 30 -5 0 -12 -7 -15
-16z"/>
<path d="M541 1942 c-1 -7 -12 -30 -26 -51 -13 -22 -27 -52 -30 -68 -3 -16 9
1 30 40 20 38 34 74 31 80 -3 9 -5 8 -5 -1z"/>
<path d="M4771 1924 c0 -11 3 -14 6 -6 3 7 2 16 -1 19 -3 4 -6 -2 -5 -13z"/>
<path d="M499 1796 c-60 -123 -88 -161 -55 -74 15 41 15 42 -2 19 -15 -21 -56
-93 -122 -214 -12 -21 -59 -102 -106 -180 -106 -176 -214 -392 -214 -426 0
-18 10 -3 33 49 37 82 56 117 307 555 32 55 61 110 64 123 4 12 12 22 17 22
18 0 21 6 -93 -195 -24 -44 -55 -98 -68 -120 -12 -22 -33 -60 -46 -84 -13 -24
-28 -49 -33 -55 -24 -29 -181 -356 -181 -377 0 -25 13 -2 76 136 16 33 38 76
50 95 53 86 218 389 284 520 17 36 39 76 47 90 33 57 114 232 109 237 -3 3
-33 -51 -67 -121z"/>
<path d="M585 1909 c-11 -16 -1 -19 13 -3 7 8 8 14 3 14 -5 0 -13 -5 -16 -11z"/>
<path d="M1945 1900 c3 -5 10 -10 16 -10 5 0 9 5 9 10 0 6 -7 10 -16 10 -8 0
-12 -4 -9 -10z"/>
<path d="M601 1877 c-15 -39 -14 -45 5 -19 8 12 13 28 11 35 -3 6 -10 -1 -16
-16z"/>
<path d="M1 1874 c0 -11 3 -14 6 -6 3 7 2 16 -1 19 -3 4 -6 -2 -5 -13z"/>
<path d="M492 1719 c-58 -112 -80 -169 -48 -124 33 48 121 233 114 240 -3 3
-32 -49 -66 -116z"/>
<path d="M620 1793 c0 -26 1 -26 15 -7 19 25 19 34 0 34 -10 0 -15 -10 -15
-27z"/>
<path d="M492 1651 c-93 -183 -177 -345 -208 -401 -115 -203 -284 -568 -284
-610 0 -24 17 6 36 65 14 45 188 401 244 500 12 22 68 128 123 235 55 107 104
200 109 205 16 18 -45 -116 -105 -230 -242 -453 -409 -812 -406 -872 0 -21 -1
-23 44 92 63 163 122 287 288 605 32 63 75 147 94 185 20 39 39 77 44 85 23
39 67 130 72 149 4 18 3 20 -9 10 -19 -16 -18 -10 12 55 14 32 24 59 21 62 -3
3 -36 -58 -75 -135z"/>
<path d="M586 1781 c-5 -8 -3 -17 5 -22 17 -11 39 -12 23 -1 -6 4 -13 14 -16
22 -3 11 -6 11 -12 1z"/>
<path d="M605 1696 c-25 -53 -45 -99 -45 -102 0 -5 -50 -106 -163 -329 -35
-68 -135 -276 -222 -460 -24 -49 -65 -153 -93 -230 -28 -77 -58 -159 -67 -182
-9 -23 -15 -54 -13 -70 2 -21 10 -7 31 62 16 50 35 104 43 122 8 17 14 38 14
46 0 9 4 18 9 22 5 3 17 29 27 58 9 28 30 81 47 117 73 162 165 354 220 460
33 63 71 138 84 165 47 97 67 134 71 131 4 -5 -34 -88 -153 -331 -199 -406
-211 -433 -307 -690 -19 -49 -43 -119 -53 -155 -10 -36 -22 -69 -27 -75 -4 -5
-8 -20 -7 -35 0 -23 1 -22 16 10 8 19 19 42 23 50 4 9 11 31 15 50 25 113 170
458 325 770 53 107 105 212 115 233 10 21 20 36 22 33 3 -2 -18 -51 -45 -108
-87 -179 -179 -372 -197 -413 -10 -22 -20 -43 -22 -47 -2 -5 0 -8 6 -8 6 0 25
30 41 68 109 237 312 647 304 612 -7 -30 -23 -64 -134 -295 -142 -294 -202
-428 -255 -570 -20 -55 -47 -125 -60 -155 -28 -68 -101 -293 -109 -340 l-6
-35 14 35 c25 61 166 453 166 462 0 12 155 358 235 523 34 72 81 173 105 225
23 52 46 102 51 110 5 8 13 25 19 38 5 12 12 22 15 22 7 0 -30 -94 -74 -185
-130 -269 -151 -316 -151 -328 0 -8 -7 -20 -15 -27 -8 -7 -15 -18 -15 -24 0
-6 -31 -79 -69 -162 -38 -82 -72 -161 -75 -175 -4 -13 -11 -33 -16 -44 -14
-32 -70 -193 -97 -279 -13 -43 -28 -86 -33 -95 -10 -20 -50 -148 -50 -161 0
-6 4 -10 9 -10 6 0 20 33 32 72 25 85 22 76 66 198 19 52 46 131 60 175 36
113 64 182 158 379 53 113 75 162 75 170 0 3 27 63 61 133 69 147 86 183 125
273 25 60 58 114 39 65 -50 -130 -69 -175 -113 -265 -73 -153 -122 -262 -122
-271 0 -7 -23 -57 -131 -285 -16 -34 -29 -70 -29 -81 0 -10 -4 -23 -9 -28 -5
-6 -39 -100 -75 -210 -36 -110 -71 -213 -77 -230 -21 -59 -28 -96 -16 -92 7 2
16 17 21 33 5 16 12 38 16 49 12 31 99 291 132 390 37 114 59 166 120 290 27
55 69 147 93 205 64 157 86 201 98 193 6 -3 7 -1 3 6 -8 12 15 78 60 178 13
28 24 55 24 60 0 4 20 58 45 118 25 61 45 118 45 127 0 27 -11 48 -26 48 -7 0
-20 12 -28 28 -8 15 -23 36 -35 46 -21 19 -21 19 -66 -78z m14 -48 c-46 -103
-69 -145 -69 -124 0 4 7 20 15 34 8 15 32 66 54 115 22 48 42 87 44 87 3 0
-17 -51 -44 -112z m-48 -183 c-12 -26 -21 -53 -21 -60 0 -7 -7 -15 -15 -19
-19 -7 -19 -8 5 42 11 23 25 54 31 69 5 14 12 23 15 20 3 -3 -4 -27 -15 -52z"/>
<path d="M3 1745 c-3 -9 -3 -18 -1 -21 3 -3 8 4 11 16 6 23 -1 27 -10 5z"/>
<path d="M591 1722 c-17 -31 -13 -40 5 -14 9 13 14 26 11 29 -3 2 -10 -4 -16
-15z"/>
<path d="M2161 1664 c0 -11 3 -14 6 -6 3 7 2 16 -1 19 -3 4 -6 -2 -5 -13z"/>
<path d="M2100 1623 c0 -20 3 -33 7 -29 11 11 12 66 2 66 -5 0 -9 -16 -9 -37z"/>
<path d="M544 1618 c-5 -7 -68 -130 -140 -273 -72 -143 -160 -318 -197 -390
-101 -200 -212 -484 -205 -528 2 -11 18 25 37 79 52 153 94 252 203 474 55
113 107 223 116 245 9 22 20 45 25 50 23 27 180 345 174 352 -3 2 -9 -2 -13
-9z"/>
<path d="M2130 1609 c0 -5 5 -7 10 -4 6 3 10 8 10 11 0 2 -4 4 -10 4 -5 0 -10
-5 -10 -11z"/>
<path d="M746 1534 c-50 -105 -45 -125 9 -30 25 43 45 85 45 92 0 32 -19 9
-54 -62z"/>
<path d="M778 1508 c-53 -89 -164 -322 -173 -363 -3 -18 10 1 33 45 80 156
104 197 126 221 12 13 25 33 29 43 4 10 10 16 13 13 4 -3 -6 -28 -22 -54 -73
-123 -75 -127 -189 -368 -32 -68 -72 -174 -80 -210 -5 -25 -3 -23 12 10 10 23
38 77 62 120 24 44 55 100 69 125 13 25 31 52 39 60 13 13 13 11 2 -15 -7 -16
-19 -37 -26 -46 -7 -8 -13 -22 -13 -30 0 -8 -20 -50 -45 -93 -24 -43 -47 -88
-51 -100 -4 -11 -27 -61 -52 -111 -104 -209 -81 -225 29 -20 31 57 59 92 59
72 0 -8 -5 -17 -11 -19 -9 -3 -50 -90 -68 -148 -5 -14 -27 -63 -51 -110 -66
-134 -137 -310 -125 -310 2 0 16 24 30 53 15 28 37 66 49 82 13 17 33 50 45
73 35 70 36 41 0 -34 -17 -38 -35 -78 -39 -89 -5 -11 -26 -58 -49 -105 -39
-83 -81 -183 -81 -194 0 -17 19 -2 30 24 7 16 16 30 21 30 5 0 17 17 27 38 60
117 82 155 82 140 0 -17 -78 -187 -91 -198 -3 -3 -8 -13 -12 -23 -6 -16 3 -17
112 -17 118 0 118 0 130 26 6 15 14 24 17 21 3 -3 1 -15 -6 -26 -9 -18 -8 -21
9 -21 22 0 61 75 108 205 14 39 35 90 48 115 27 55 61 134 111 260 21 52 41
100 44 105 4 6 22 55 40 110 18 55 44 119 58 143 25 44 72 221 72 273 0 16 -4
29 -10 29 -5 0 -10 -9 -10 -21 0 -41 -50 -209 -84 -281 -19 -40 -41 -95 -49
-123 -21 -68 -60 -160 -76 -179 -8 -9 -11 -16 -7 -16 4 0 -3 -18 -14 -40 -11
-21 -20 -46 -20 -54 0 -8 -3 -16 -7 -18 -5 -1 -18 -30 -31 -63 -13 -33 -29
-73 -37 -90 -7 -16 -16 -40 -20 -52 -3 -11 -12 -27 -20 -33 -14 -12 11 58 61
168 13 29 24 55 24 58 0 3 8 24 19 47 51 116 111 258 129 312 11 33 32 83 45
110 21 44 87 281 87 313 0 24 -18 11 -23 -15 -13 -77 -60 -230 -86 -280 -16
-32 -48 -105 -72 -163 -24 -58 -46 -109 -51 -115 -15 -17 -8 18 11 59 92 194
165 393 185 509 12 64 -1 41 -38 -70 -19 -60 -52 -139 -72 -178 -19 -38 -38
-81 -40 -95 -3 -14 -12 -32 -20 -40 -13 -13 -13 -10 0 25 8 22 36 87 64 145
48 102 82 211 82 261 0 19 -2 21 -10 9 -8 -12 -10 -11 -10 7 0 25 -16 39 -24
21 -3 -7 -4 -4 -1 8 3 13 -8 43 -30 80 -20 32 -38 69 -41 82 -9 34 -38 27 -58
-14 -9 -20 -19 -34 -22 -31 -3 2 4 21 16 41 25 45 25 56 1 56 -13 0 -33 -23
-63 -72z m212 -245 c-14 -42 -55 -120 -47 -88 9 33 52 133 55 130 2 -2 -2 -21
-8 -42z m-57 -128 c-3 -9 -8 -14 -10 -11 -3 3 -2 9 2 15 9 16 15 13 8 -4z
m-97 -471 c-4 -9 -9 -15 -11 -12 -3 3 -3 13 1 22 4 9 9 15 11 12 3 -3 3 -13
-1 -22z m-151 -466 c-9 -18 -23 -54 -31 -80 -8 -26 -19 -50 -24 -53 -17 -10
-11 12 19 77 16 35 31 72 35 82 4 10 9 16 12 13 3 -3 -2 -21 -11 -39z"/>
<path d="M406 1546 c-9 -14 -16 -28 -16 -31 0 -3 -27 -53 -60 -110 -33 -57
-60 -106 -60 -109 0 -2 -23 -44 -51 -93 -66 -113 -173 -326 -190 -378 -7 -22
-17 -44 -21 -49 -4 -6 -8 -19 -8 -30 0 -13 9 -1 24 29 69 146 119 248 159 320
24 44 73 134 109 200 88 161 140 266 135 271 -2 3 -12 -7 -21 -20z"/>
<path d="M3355 1558 c-2 -7 -6 -24 -8 -38 -7 -36 -116 -422 -181 -645 -64
-216 -72 -246 -121 -440 -20 -77 -45 -171 -56 -209 -25 -82 -58 -208 -59 -217
0 -4 119 -7 265 -8 245 -1 265 1 265 17 0 9 -7 69 -16 132 -13 89 -16 179 -14
395 4 336 4 339 -5 440 -6 70 -9 81 -26 82 -13 1 -19 -5 -19 -18 0 -11 -5 -40
-11 -65 -10 -37 -15 -44 -35 -44 -15 0 -24 -6 -24 -15 0 -8 3 -14 8 -14 20 3
32 -3 32 -17 0 -11 -8 -14 -27 -12 -34 4 -39 25 -23 83 9 33 16 42 33 41 11 0
22 5 24 12 3 6 -2 12 -11 12 -23 0 -25 12 -13 58 7 27 17 42 27 42 9 0 20 3
23 7 11 10 -14 33 -37 33 -21 1 -21 1 2 20 12 10 27 20 33 22 8 3 8 25 -1 78
-6 41 -11 121 -11 178 1 93 -3 123 -14 90z m5 -723 c36 -19 37 -28 5 -80 -13
-22 -28 -49 -34 -60 -5 -11 -21 -31 -36 -45 -26 -25 -27 -25 -41 -5 -21 28
-34 83 -34 142 0 57 3 60 73 62 21 0 51 -6 67 -14z m-106 -582 c-24 -108 -30
-115 -78 -97 -21 8 -21 24 0 24 12 0 15 6 10 20 -3 11 -9 29 -12 40 -5 17 -2
18 30 13 29 -4 36 -2 36 11 0 9 5 16 10 16 6 0 8 -11 4 -27z m-119 -25 c-9
-52 -21 -78 -38 -78 -9 0 -9 -2 1 -8 10 -7 10 -20 2 -60 -12 -53 -40 -93 -40
-55 0 10 6 27 14 38 7 11 12 31 10 45 -3 32 16 100 28 100 5 0 7 9 3 20 -7 22
1 40 16 40 7 0 8 -15 4 -42z m50 -137 c-4 -23 -11 -43 -16 -47 -12 -7 -11 12
2 59 13 50 23 41 14 -12z"/>
<path d="M3270 813 c0 -4 4 -14 8 -21 10 -15 45 -5 39 12 -4 13 -47 21 -47 9z"/>
<path d="M3240 757 c0 -34 10 -58 21 -51 14 8 10 50 -6 64 -13 11 -15 8 -15
-13z"/>
<path d="M3317 758 c-9 -7 -19 -26 -22 -43 l-6 -30 25 28 c14 15 26 35 26 43
0 17 -2 17 -23 2z"/>
<path d="M3211 194 c0 -11 3 -14 6 -6 3 7 2 16 -1 19 -3 4 -6 -2 -5 -13z"/>
<path d="M21 1521 c-29 -56 -26 -65 4 -12 14 24 23 46 21 48 -3 3 -14 -13 -25
-36z"/>
<path d="M17 1453 c-4 -3 -7 -13 -7 -22 1 -13 3 -13 11 2 11 19 8 33 -4 20z"/>
<path d="M691 1404 c0 -11 3 -14 6 -6 3 7 2 16 -1 19 -3 4 -6 -2 -5 -13z"/>
<path d="M9555 1312 c-17 -12 -115 -147 -115 -158 0 -7 -20 -32 -62 -74 -68
-69 -72 -93 -64 -445 3 -171 9 -383 13 -472 l6 -163 124 0 123 0 0 660 c0 363
-3 660 -7 660 -5 0 -13 -4 -18 -8z"/>
<path d="M7575 1200 c-3 -5 1 -10 10 -10 9 0 13 5 10 10 -3 6 -8 10 -10 10 -2
0 -7 -4 -10 -10z"/>
<path d="M7517 1124 c-6 -98 0 -856 9 -1002 l7 -122 100 0 100 0 -5 45 c-3 25
-1 48 4 51 9 6 3 83 -9 114 -11 28 -20 111 -28 245 -6 104 -6 104 -23 98 -12
-5 -13 7 -9 78 3 46 3 73 0 60 -13 -65 -20 19 -15 213 3 150 1 216 -7 220 -6
4 -11 2 -11 -3 0 -24 -19 -9 -25 19 -4 17 -13 30 -21 30 -13 0 -17 -11 -17
-52 0 -10 -6 -18 -13 -18 -9 0 -14 12 -14 33 0 17 -4 38 -9 46 -6 9 -11 -9
-14 -55z"/>
<path d="M7615 1180 c3 -5 8 -10 11 -10 2 0 4 5 4 10 0 6 -5 10 -11 10 -5 0
-7 -4 -4 -10z"/>
<path d="M1096 1100 c-9 -40 -16 -77 -16 -84 0 -6 -11 -33 -25 -61 -31 -63
-69 -159 -101 -255 -14 -41 -36 -95 -49 -120 -13 -25 -33 -72 -46 -105 -12
-33 -27 -67 -34 -75 -7 -8 -15 -28 -19 -45 -4 -16 -16 -48 -27 -72 -10 -23
-19 -44 -19 -47 0 -3 -20 -51 -45 -106 -25 -55 -45 -107 -45 -116 0 -31 33 -9
47 31 7 22 17 49 22 60 5 11 30 72 57 135 26 63 51 119 56 124 4 6 8 16 8 24
0 12 9 34 55 137 7 17 36 91 65 165 28 74 66 169 84 210 39 87 75 245 59 261
-7 7 -16 -12 -27 -61z"/>
<path d="M2012 1154 c-11 -12 -11 -18 -2 -29 7 -8 18 -15 24 -14 7 0 6 2 -1 6
-15 6 -17 33 -3 33 6 0 10 5 10 10 0 14 -13 12 -28 -6z"/>
<path d="M526 1036 c-20 -47 -36 -87 -36 -91 0 -6 -9 -27 -90 -200 -52 -111
-74 -167 -110 -270 -128 -376 -158 -475 -142 -475 7 0 28 59 106 300 59 182
110 313 162 420 31 63 60 124 64 135 76 191 101 265 87 265 -2 0 -21 -38 -41
-84z"/>
<path d="M1125 1028 c-8 -42 -21 -79 -55 -153 -15 -33 -31 -75 -35 -93 -3 -18
-13 -45 -20 -60 -7 -15 -54 -128 -104 -252 -50 -124 -100 -241 -111 -261 -11
-20 -20 -42 -20 -48 0 -6 -8 -30 -19 -54 -46 -106 -47 -107 -26 -107 8 0 15 5
15 10 0 6 9 29 19 53 101 224 113 253 167 387 19 47 41 99 48 115 8 17 23 57
34 90 38 108 70 189 97 243 26 55 45 127 37 150 -7 22 -20 12 -27 -20z"/>
<path d="M0 1020 c0 -11 2 -20 4 -20 2 0 6 9 9 20 3 11 1 20 -4 20 -5 0 -9 -9
-9 -20z"/>
<path d="M1975 1020 c3 -5 8 -10 11 -10 2 0 4 5 4 10 0 6 -5 10 -11 10 -5 0
-7 -4 -4 -10z"/>
<path d="M1150 955 c-23 -63 -52 -141 -61 -160 -4 -11 -24 -64 -44 -119 -20
-54 -49 -126 -65 -160 -15 -33 -40 -95 -55 -136 -15 -41 -37 -97 -50 -125
-103 -229 -112 -255 -92 -255 15 0 55 87 157 345 29 72 58 144 66 160 7 17 39
95 70 175 31 80 67 165 80 189 25 46 30 76 14 101 -7 11 -11 8 -20 -15z"/>
<path d="M1162 833 c-38 -87 -132 -314 -132 -320 0 -8 -46 -126 -66 -170 -8
-17 -14 -36 -14 -42 0 -6 -4 -11 -9 -11 -5 0 -11 -13 -14 -29 -3 -15 -17 -52
-31 -82 -58 -127 -76 -172 -72 -177 14 -14 35 15 70 99 22 52 52 121 67 154
38 84 76 179 100 250 11 33 31 83 44 110 30 63 95 236 95 253 0 26 -18 10 -38
-35z"/>
<path d="M1172 727 c-19 -45 -37 -91 -41 -102 -5 -11 -18 -41 -30 -68 -11 -26
-21 -56 -21 -67 0 -11 -4 -20 -10 -20 -5 0 -10 -5 -10 -11 0 -15 -56 -156
-132 -329 -6 -14 -16 -37 -24 -51 -7 -14 -18 -38 -23 -52 -9 -23 -8 -27 9 -27
10 0 22 9 26 22 7 22 68 160 84 190 10 18 87 215 116 293 9 28 21 55 24 60 4
6 17 39 29 75 13 35 31 84 42 107 18 40 18 63 1 63 -4 0 -22 -37 -40 -83z"/>
<path d="M238 753 c-22 -27 -154 -374 -203 -533 -9 -30 -21 -65 -26 -78 -5
-13 -9 -37 -8 -55 0 -22 16 13 50 113 28 80 55 159 60 177 15 49 126 338 139
363 15 28 8 36 -12 13z"/>
<path d="M422 693 c-37 -75 -121 -303 -157 -428 -10 -33 -21 -64 -25 -70 -4
-5 -10 -23 -13 -40 -3 -16 -15 -56 -27 -88 -21 -56 -22 -75 -2 -63 5 3 33 79
62 168 29 90 58 177 65 193 7 17 32 82 55 145 24 63 46 120 50 125 12 17 43
125 37 131 -3 3 -23 -30 -45 -73z"/>
<path d="M1222 732 c-7 -15 -25 -58 -39 -97 -14 -38 -29 -74 -33 -80 -4 -5
-10 -25 -14 -43 -3 -19 -12 -48 -20 -65 -8 -18 -22 -56 -31 -84 -9 -29 -21
-53 -26 -53 -5 0 -9 -7 -9 -16 0 -8 -12 -41 -26 -72 -103 -222 -103 -222 -77
-222 19 0 21 4 61 84 12 25 25 46 28 46 9 0 -8 -44 -20 -52 -6 -4 -8 -8 -3 -8
4 0 1 -13 -8 -30 -8 -16 -15 -31 -15 -34 0 -2 39 -5 86 -5 l85 -1 24 55 c14
30 41 105 60 167 64 202 68 213 76 223 6 5 9 5 9 -1 0 -10 -85 -276 -97 -304
-3 -8 -14 -35 -23 -60 -9 -25 -21 -53 -25 -63 -6 -16 -4 -18 16 -15 20 3 29
19 65 123 59 168 83 232 84 217 0 -11 -84 -272 -105 -324 -5 -13 -2 -18 9 -18
19 0 18 -3 85 185 58 160 71 224 48 243 -12 10 -15 6 -21 -29 -4 -23 -9 -39
-12 -37 -2 3 0 25 5 50 10 45 5 88 -10 88 -5 0 -9 -7 -9 -15 0 -8 -4 -15 -9
-15 -6 0 -6 12 1 30 10 31 6 60 -10 60 -5 0 -15 -21 -22 -47 -22 -84 -47 -154
-58 -165 -15 -15 2 53 32 129 35 90 39 115 22 138 -11 15 -15 16 -16 5 0 -8
-9 -37 -19 -65 -27 -68 -34 -88 -36 -100 0 -5 -6 -23 -13 -38 -7 -16 -12 -34
-12 -40 -1 -7 -8 -23 -16 -37 -11 -17 -13 -19 -9 -5 4 11 12 43 20 70 7 28 20
70 30 95 54 147 55 152 44 173 -10 18 -15 11 -44 -64 -18 -46 -49 -137 -70
-202 -37 -115 -55 -150 -55 -108 0 12 5 21 10 21 6 0 10 7 10 15 0 8 4 23 9
33 9 18 96 273 114 334 14 48 -2 70 -21 30z m5 -444 c-3 -7 -5 -2 -5 12 0 14
2 19 5 13 2 -7 2 -19 0 -25z m-75 -39 c-11 -25 -23 -59 -27 -77 -3 -18 -10
-32 -15 -32 -5 0 2 30 15 68 32 94 38 107 42 96 2 -6 -5 -31 -15 -55z m-76
-55 c-4 -9 -9 -15 -11 -12 -3 3 -3 13 1 22 4 9 9 15 11 12 3 -3 3 -13 -1 -22z
m111 -16 c-3 -8 -6 -5 -6 6 -1 11 2 17 5 13 3 -3 4 -12 1 -19z m-106 -101
c-10 -9 -11 -8 -5 6 3 10 9 15 12 12 3 -3 0 -11 -7 -18z"/>
<path d="M1270 733 c0 -4 5 -15 10 -23 8 -13 10 -13 10 2 0 9 -4 20 -10 23 -5
3 -10 3 -10 -2z"/>
<path d="M1321 620 c0 -8 8 -26 19 -40 16 -20 20 -22 20 -7 0 9 -4 17 -8 17
-5 0 -14 10 -20 23 -6 13 -11 16 -11 7z"/>
<path d="M431 553 c-1 -6 -4 -20 -7 -30 -5 -17 -5 -17 6 0 6 10 9 23 6 30 -3
9 -5 9 -5 0z"/>
<path d="M2141 484 c0 -11 3 -14 6 -6 3 7 2 16 -1 19 -3 4 -6 -2 -5 -13z"/>
<path d="M1443 405 c11 -23 27 -34 27 -17 -1 9 -26 42 -33 42 -3 0 0 -11 6
-25z"/>
<path d="M337 343 c-14 -38 -31 -88 -37 -113 -7 -25 -19 -61 -26 -80 -20 -48
-44 -143 -38 -149 10 -11 23 20 58 134 20 66 41 134 47 150 27 77 36 115 29
120 -5 3 -19 -25 -33 -62z"/>
<path d="M2146 375 c4 -8 8 -15 10 -15 2 0 4 7 4 15 0 8 -4 15 -10 15 -5 0 -7
-7 -4 -15z"/>
<path d="M1405 333 c-8 -47 -42 -152 -53 -167 -5 -6 -17 -38 -27 -71 -10 -33
-21 -64 -26 -70 -13 -14 -11 -25 6 -25 16 0 41 52 85 181 17 51 38 105 46 121
12 23 12 31 2 48 -18 29 -25 25 -33 -17z"/>
<path d="M1480 357 c0 -8 9 -22 20 -32 20 -18 20 -18 9 13 -11 32 -29 43 -29
19z"/>
<path d="M1446 285 c-9 -21 -16 -46 -16 -56 0 -10 -4 -21 -10 -24 -5 -3 -10
-14 -10 -25 0 -10 -13 -48 -30 -85 -31 -70 -37 -99 -19 -93 12 4 64 127 98
232 15 46 19 72 12 79 -6 6 -15 -3 -25 -28z"/>
<path d="M1520 284 c0 -8 5 -12 10 -9 6 3 10 10 10 16 0 5 -4 9 -10 9 -5 0
-10 -7 -10 -16z"/>
<path d="M1480 255 c0 -19 -58 -190 -77 -227 -11 -24 -11 -28 0 -28 17 0 34
35 47 98 6 26 17 61 25 79 22 46 30 93 16 93 -6 0 -11 -7 -11 -15z"/>
<path d="M1530 113 c0 -21 -4 -44 -9 -52 -5 -7 -6 -22 -4 -32 10 -38 18 -18
21 51 1 39 0 70 -3 70 -3 0 -5 -17 -5 -37z"/>
<path d="M3880 120 c-50 -11 -98 -38 -105 -60 -3 -10 -15 -22 -26 -25 -32 -11
-23 -35 14 -35 24 0 39 8 57 29 13 17 27 28 32 25 4 -3 -4 -16 -20 -29 l-27
-24 92 -1 c82 0 92 2 86 17 -6 16 -5 16 17 0 29 -20 100 -23 100 -4 -1 34 -94
102 -150 110 -19 2 -51 1 -70 -3z"/>
<path d="M1470 98 c0 -13 -7 -36 -15 -52 -17 -33 -19 -46 -5 -46 5 0 14 19 20
43 6 23 13 50 16 60 3 9 1 17 -5 17 -6 0 -11 -10 -11 -22z"/>
<path d="M1552 91 c-13 -36 -3 -91 18 -91 15 0 16 6 8 53 -12 62 -15 67 -26
38z"/>
<path d="M20 40 c-13 -32 -5 -55 10 -30 9 15 14 60 6 60 -2 0 -9 -14 -16 -30z"/>
<path d="M2232 45 c0 -17 2 -22 5 -12 2 9 2 23 0 30 -3 6 -5 -1 -5 -18z"/>
</g>
</svg>
